<?xml version="1.0" encoding="UTF-8"?>
<svg id="Layer_3" data-name="Layer 3" xmlns="http://www.w3.org/2000/svg" viewBox="0 0 762.85 500">
  <defs>
    <style>
      .cls-1 {
        fill: #fff;
      }

      .cls-2 {
        fill: #d0b677;
      }
    </style>
  </defs>
  <g id="Layer_1" data-name="Layer 1">
    <g>
      <polygon class="cls-1" points="762.85 250 695.93 250 667.41 166.67 762.85 250"/>
      <polygon class="cls-2" points="762.85 250 695.93 250 667.41 333.33 762.85 250"/>
      <polygon class="cls-1" points="667.41 333.33 600.49 333.33 571.98 250 667.41 333.33"/>
      <polygon class="cls-2" points="667.41 333.33 600.49 333.33 571.98 416.67 667.41 333.33"/>
      <polygon class="cls-1" points="667.41 166.67 600.49 166.67 571.98 83.33 667.41 166.67"/>
      <polygon class="cls-2" points="667.41 166.67 600.49 166.67 571.98 250 667.41 166.67"/>
      <polygon class="cls-1" points="571.98 83.33 505.05 83.33 476.54 0 571.98 83.33"/>
      <polygon class="cls-2" points="571.98 83.33 505.05 83.33 476.54 166.67 571.98 83.33"/>
      <polygon class="cls-1" points="571.98 250 505.05 250 476.54 166.67 571.98 250"/>
      <polygon class="cls-2" points="571.98 250 505.05 250 476.54 333.33 571.98 250"/>
      <polygon class="cls-1" points="571.98 416.67 505.05 416.67 476.54 333.33 571.98 416.67"/>
      <polygon class="cls-2" points="571.98 416.67 505.05 416.67 476.54 500 571.98 416.67"/>
      <path class="cls-1" d="M34.43,83.33h24.38l34.57,95.79h-24.92l-5.63-17.28H29.34l-5.49,17.28H0l34.43-95.79ZM57.34,144.83l-7.24-23.18c-1.61-4.96-3.75-13.53-3.75-13.53h-.27s-2.28,8.57-3.89,13.53l-7.37,23.18h22.51Z"/>
      <path class="cls-1" d="M91.9,144.83c0-21.44,12.33-36.31,30.01-36.31,9.65,0,15.14,4.02,19.16,9.78h.4v-34.97h21.84v95.79h-20.9v-9.24h-.27c-4.15,7.1-11.25,11.39-20.23,11.39-17.55,0-30.01-13.53-30.01-36.44ZM142,144.83c0-11.52-4.69-19.83-14.2-19.83-8.71,0-13.8,8.04-13.8,19.56s5.09,19.43,13.53,19.43c9.11,0,14.47-7.9,14.47-19.16Z"/>
      <path class="cls-1" d="M172.55,110.53h20.9v10.72h.4c4.82-8.17,10.45-11.79,18.76-11.79,2.01,0,3.35.13,4.29.54v18.76h-.54c-13.4-1.88-21.97,4.69-21.97,19.56v30.81h-21.84v-68.59Z"/>
      <path class="cls-1" d="M220.59,83.33h21.84v17.68h-21.84v-17.68ZM220.59,110.53h21.84v68.59h-21.84v-68.59Z"/>
      <path class="cls-1" d="M248.35,159.97c0-15.14,12.06-19.69,26.26-21.57,12.86-1.61,17.42-2.95,17.42-7.64,0-4.42-2.81-7.37-9.38-7.37-6.97,0-10.45,3.08-11.12,8.84h-20.1c.54-12.73,10.32-23.58,31.08-23.58,10.32,0,17.28,1.88,22.24,5.63,5.9,4.29,8.71,10.99,8.71,19.56v34.57c0,5.49.54,8.57,2.41,9.78v.94h-21.17c-1.07-1.47-1.74-4.15-2.28-7.64h-.27c-4.02,5.76-10.05,9.38-20.36,9.38-13.67,0-23.45-7.37-23.45-20.9ZM292.57,154.61v-8.17c-2.81,1.47-6.83,2.55-11.25,3.62-8.44,1.88-11.92,4.02-11.92,9.24,0,5.49,4.02,7.64,9.38,7.64,8.17,0,13.8-4.96,13.8-12.33Z"/>
      <g>
        <path class="cls-1" d="M0,217.31h71.27v19.96H23.71v19.43h39.79v19.16H23.71v37.24H0v-95.79Z"/>
        <path class="cls-1" d="M71.57,289.52v-45.02h21.7v40.46c0,7.5,3.35,11.66,10.32,11.66,7.5,0,12.06-5.63,12.06-13.8v-38.32h21.84v68.59h-20.9v-8.44h-.4c-4.96,6.7-10.98,10.45-20.5,10.45-15.81,0-24.12-10.32-24.12-25.59Z"/>
        <path class="cls-1" d="M150.9,295.02v-36.84h-9.11v-13.67h9.11v-21.7h21.3v21.7h12.46v13.67h-12.46v32.15c0,5.36,2.95,6.7,7.64,6.7,1.88,0,4.02-.13,4.82-.13v15.94c-1.88.54-6.03,1.07-11.92,1.07-12.73,0-21.84-4.15-21.84-18.89Z"/>
        <path class="cls-1" d="M189.78,289.52v-45.02h21.7v40.46c0,7.5,3.35,11.66,10.32,11.66,7.5,0,12.06-5.63,12.06-13.8v-38.32h21.84v68.59h-20.9v-8.44h-.4c-4.96,6.7-10.98,10.45-20.5,10.45-15.81,0-24.12-10.32-24.12-25.59Z"/>
        <path class="cls-1" d="M264.94,244.51h20.9v10.72h.4c4.82-8.17,10.45-11.79,18.76-11.79,2.01,0,3.35.13,4.29.54v18.76h-.54c-13.4-1.88-21.97,4.69-21.97,19.56v30.81h-21.84v-68.59Z"/>
        <path class="cls-1" d="M310.36,278.67c0-20.5,14.33-36.17,35.23-36.17,9.78,0,17.55,3.22,23.44,8.57,8.17,7.5,12.19,19.43,12.06,33.36h-49.3c1.34,9.24,6.43,15.01,15.41,15.01,5.76,0,9.51-2.55,11.39-6.83h21.3c-1.47,6.16-5.49,12.06-11.52,16.21-5.76,4.02-12.73,6.3-21.44,6.3-22.64,0-36.57-15.68-36.57-36.44ZM358.99,271.44c-.8-8.17-5.9-13.4-13-13.4-8.31,0-12.59,5.22-14.07,13.4h27.06Z"/>
      </g>
      <g>
        <path class="cls-2" d="M0,394.81h7.51c1.02,10.33,7.34,15.71,18.87,15.71,8.45,0,14.51-3.84,14.51-11.44,0-8.37-7.34-10.33-18.27-12.72-10.76-2.39-19.98-5.46-19.98-16.99,0-10.07,8.37-16.13,20.74-16.13,15.28,0,21.6,7.77,23.13,19.04h-7.26c-1.11-8.71-6.74-13.06-15.71-13.06-8.28,0-13.74,3.5-13.74,9.82,0,6.91,6.83,8.96,15.96,10.76,11.87,2.39,22.71,5.29,22.71,19.04,0,11.44-9.3,17.84-22.45,17.84-17.16,0-25.35-9.56-26.04-21.85Z"/>
        <path class="cls-2" d="M68.84,395.75v-41.32h7.68v40.55c0,10.41,5.89,14.85,15.96,14.85s15.45-4.44,15.45-14.85v-40.55h7.68v41.32c0,14.77-10.33,20.66-23.39,20.66s-23.39-5.89-23.39-20.66Z"/>
        <path class="cls-2" d="M139.1,354.44h9.82l19.8,50.71h.17l19.63-50.71h9.99v61.04h-7.34v-50.19h-.17s-1.62,4.78-2.73,7.68l-16.73,42.51h-5.89l-16.73-42.51c-1.19-3.07-2.73-7.68-2.73-7.68h-.17v50.19h-6.91v-61.04Z"/>
        <path class="cls-2" d="M222.63,354.44h9.82l19.8,50.71h.17l19.63-50.71h9.99v61.04h-7.34v-50.19h-.17s-1.62,4.78-2.73,7.68l-16.73,42.51h-5.89l-16.73-42.51c-1.19-3.07-2.73-7.68-2.73-7.68h-.17v50.19h-6.91v-61.04Z"/>
        <path class="cls-2" d="M306.22,354.44h7.68v61.04h-7.68v-61.04Z"/>
        <path class="cls-2" d="M332.78,354.44h48.32v6.74h-20.32v54.29h-7.68v-54.29h-20.32v-6.74Z"/>
      </g>
    </g>
  </g>
</svg>